<svg id="undraw_ideation_2a64_1_" data-name="undraw_ideation_2a64 (1)" xmlns="http://www.w3.org/2000/svg" width="1074.5" height="818" viewBox="0 0 1074.5 818">
  <defs>
    <style>
      .cls-1 {
        fill: #f2f2f2;
      }

      .cls-2 {
        fill: #00ff75;
      }

      .cls-3 {
        fill: #3f3d56;
      }

      .cls-4 {
        fill: #a0616a;
      }

      .cls-5 {
        fill: #2f2e41;
      }
    </style>
  </defs>
  <path id="Контур_45" data-name="Контур 45" class="cls-1" d="M787,394.71l-15.879,71.42-12.89,57.94-10.274,46.21-12.882,57.94-42.1,189.29L171.363,576.48l-38.342-17.72L84.488,536.33,46.133,518.61,0,497.29l26.153-38.05L47.9,427.6l27.513-40.03,21.741-31.62L341.818,0,601,229.8l46.154,40.92,36.8,32.63,46.16,40.92Z"/>
  <path id="Контур_46" data-name="Контур 46" class="cls-2" d="M591.611,484.662l26.945,46.669L645.5,578H537.723l26.944-46.669Z"/>
  <rect id="Прямоугольник_12" data-name="Прямоугольник 12" class="cls-2" width="113" height="113" transform="translate(325.5 393)"/>
  <circle id="Эллипс_15" data-name="Эллипс 15" class="cls-2" cx="72.5" cy="72.5" r="72.5" transform="translate(447 176)"/>
  <path id="Контур_47" data-name="Контур 47" class="cls-3" d="M647.5,410.556a12,12,0,1,1,12,12,12,12,0,0,1-12-12Zm2,0a10,10,0,1,0,10-10,10,10,0,0,0-10,10Z" transform="translate(-62.75 -41)"/>
  <path id="Контур_48" data-name="Контур 48" class="cls-3" d="M544.186,619.293l-17.664-18.938,18.938-17.664,17.664,18.938Zm-14.848-18.84,14.946,16.024,16.024-14.946-14.946-16.024Z" transform="translate(-62.75 -41)"/>
  <path id="Контур_49" data-name="Контур 49" class="cls-3" d="M398.3,349.887l-14.376-15.413L399.341,320.1l14.376,15.413Zm-12.085-15.333L398.384,347.6l13.042-12.165-12.165-13.042Z" transform="translate(-62.75 -41)"/>
  <rect id="Прямоугольник_13" data-name="Прямоугольник 13" class="cls-3" width="624" height="2" transform="translate(450.5 816)"/>
  <path id="Контур_50" data-name="Контур 50" class="cls-3" d="M600.25,371a100,100,0,1,1,100-100,100,100,0,0,1-100,100Zm0-198a98,98,0,1,0,98,98,98,98,0,0,0-98-98Z" transform="translate(-62.75 -41)"/>
  <rect id="Прямоугольник_14" data-name="Прямоугольник 14" class="cls-3" width="59.647" height="2" transform="translate(450.108 361.568) rotate(-64.336)"/>
  <rect id="Прямоугольник_15" data-name="Прямоугольник 15" class="cls-3" width="2" height="129.383" transform="translate(469.025 434.877) rotate(-61.578)"/>
  <path id="Контур_51" data-name="Контур 51" class="cls-3" d="M533.25,548h-146V402h146Zm-144-2h142V404h-142Z" transform="translate(-62.75 -41)"/>
  <path id="Контур_52" data-name="Контур 52" class="cls-3" d="M749.76,620H598.741L674.25,489.214Zm-147.555-2h144.09L674.25,493.214Z" transform="translate(-62.75 -41)"/>
  <circle id="Эллипс_16" data-name="Эллипс 16" class="cls-4" cx="25" cy="25" r="25" transform="translate(852.5 312)"/>
  <path id="Контур_53" data-name="Контур 53" class="cls-4" d="M953.25,391s3,30,8,35-35-3-35-3,6-25,2-29S953.25,391,953.25,391Z" transform="translate(-62.75 -41)"/>
  <path id="Контур_54" data-name="Контур 54" class="cls-4" d="M970.75,441.5s12,34,15,55,3,30,3,30,13,40,9,59c0,0,15,45,2,45s-17-37-17-37l-20-95Z" transform="translate(-62.75 -41)"/>
  <path id="Контур_55" data-name="Контур 55" class="cls-5" d="M976.75,457.5s-3-37-16-40c-6.206-1.432-16.287-3.548-25.128-5.369-15.4-3.171-31.289,4.136-38.29,18.217a25.527,25.527,0,0,0-2.581,8.152c-2,16-12,16-3,37s7,43,7,43l6,53s-25,70-23,117l-23,115s5,12,19,6c0,0,35-59,32-102l36-80s25,76,32,83l18,108s17,5,25,0c0,0,3-104-14-121,0,0-17-72-13-91s5-48-25-74c0,0,4-11-9-17l10-32Z" transform="translate(-62.75 -41)"/>
  <path id="Контур_56" data-name="Контур 56" class="cls-4" d="M914.03,414.884q-.405-.059-.827-.1c-8.854-.8-16.478,6.27-16.873,15.152L894.75,465.5l-6,39-13,84s-25,30-8,32,20-33,20-33l22-66,9-61s10.5-10.5,6.128-34.765a13.153,13.153,0,0,0-10.848-10.851Z" transform="translate(-62.75 -41)"/>
  <path id="Контур_57" data-name="Контур 57" class="cls-5" d="M856.75,799.5l-7,36s-17,8-6,18,26-2,26-2l4-12-1,18h3l3-18s6-11,2-20v-12Z" transform="translate(-62.75 -41)"/>
  <path id="Контур_58" data-name="Контур 58" class="cls-5" d="M993.25,803l-4,33s-17,8-6,18,26-2,26-2l4-12-1,18h3l3-18s6-11,2-20V808Z" transform="translate(-62.75 -41)"/>
  <path id="Контур_59" data-name="Контур 59" class="cls-5" d="M953.291,339.359h0a21.63,21.63,0,0,0-4.176.415,18.3,18.3,0,0,0-7.972-1.837h-.724c-13.951,0-25.26,12.624-25.26,28.2h4.674l.755-5.746,1.107,5.746h3.894a55.11,55.11,0,0,0-1.809,14.126v28.7h7.068l4.092-10.633-1.023,10.633h45.428l3.72-9.667-.93,9.667h5.115V386.424C987.25,360.431,972.046,339.359,953.291,339.359Z" transform="translate(-62.75 -41)"/>
  <rect id="Прямоугольник_16" data-name="Прямоугольник 16" class="cls-3" width="1.875" height="335.244" transform="translate(1029.37 481.54)"/>
  <ellipse id="Эллипс_17" data-name="Эллипс 17" class="cls-3" cx="36.557" cy="83.424" rx="36.557" ry="83.424" transform="translate(994.113 621.206)"/>
  <ellipse id="Эллипс_18" data-name="Эллипс 18" class="cls-3" cx="36.557" cy="83.424" rx="36.557" ry="83.424" transform="translate(994.113 430.924)"/>
  <path id="Контур_60" data-name="Контур 60" class="cls-3" d="M1094.31,487.19l-1.8-.538c.114-.379,11.135-38.147-6.962-62.461-10.221-13.732-27.76-20.694-52.131-20.694v-1.875c25,0,43.046,7.219,53.64,21.457C1105.72,448.154,1094.43,486.8,1094.31,487.19Z" transform="translate(-62.75 -41)"/>
  <circle id="Эллипс_19" data-name="Эллипс 19" class="cls-1" cx="23.434" cy="23.434" r="23.434" transform="translate(947.242 338.125)"/>
</svg>
