<?xml version="1.0" encoding="utf-8"?>
<!-- Generator: Adobe Illustrator 23.0.1, SVG Export Plug-In . SVG Version: 6.00 Build 0)  -->
<svg version="1.1" id="Слой_1" xmlns="http://www.w3.org/2000/svg" xmlns:xlink="http://www.w3.org/1999/xlink" x="0px" y="0px"
	 viewBox="0 0 135 34" style="enable-background:new 0 0 135 34;" xml:space="preserve">
<style type="text/css">
	.st0{enable-background:new    ;}
	.st1{fill:#CCCCCC;}
</style>
<g class="st0">
	<path class="st1" d="M29.5,33.3l0-19.3l-9.5,15.9h-3.4L7.1,14.4v18.9h-7V1.1h6.2l12.1,20l11.9-20h6.1l0.1,32.2H29.5z"/>
	<path class="st1" d="M48.3,32c-2.1-1.1-3.7-2.6-4.9-4.5c-1.2-1.9-1.7-4.1-1.7-6.6c0-2.5,0.6-4.6,1.7-6.6c1.2-1.9,2.8-3.4,4.9-4.5
		c2.1-1.1,4.4-1.6,7-1.6c2.6,0,4.9,0.5,7,1.6c2.1,1.1,3.7,2.6,4.8,4.5c1.2,1.9,1.7,4.1,1.7,6.6c0,2.5-0.6,4.6-1.7,6.6
		C66,29.4,64.4,31,62.3,32c-2.1,1.1-4.4,1.6-7,1.6C52.7,33.7,50.4,33.1,48.3,32z M59.9,25.9c1.2-1.2,1.8-2.9,1.8-5
		c0-2.1-0.6-3.7-1.8-5c-1.2-1.2-2.7-1.9-4.5-1.9s-3.4,0.6-4.6,1.9c-1.2,1.2-1.8,2.9-1.8,5c0,2.1,0.6,3.7,1.8,5
		c1.2,1.2,2.7,1.9,4.6,1.9S58.7,27.2,59.9,25.9z"/>
	<path class="st1" d="M96,16.7h6.8v13.1c-1.7,1.3-3.8,2.3-6.1,3c-2.3,0.7-4.6,1.1-6.9,1.1c-3.3,0-6.3-0.7-9-2.1s-4.8-3.4-6.3-5.9
		c-1.5-2.5-2.3-5.4-2.3-8.6c0-3.2,0.8-6,2.3-8.6c1.5-2.5,3.6-4.5,6.3-5.9c2.7-1.4,5.7-2.1,9.1-2.1c2.8,0,5.4,0.5,7.7,1.4
		c2.3,1,4.2,2.3,5.8,4.1l-4.8,4.4c-2.3-2.4-5.1-3.6-8.3-3.6c-2.1,0-3.9,0.4-5.5,1.3c-1.6,0.9-2.8,2.1-3.7,3.6
		c-0.9,1.6-1.3,3.4-1.3,5.4c0,2,0.4,3.8,1.3,5.3c0.9,1.6,2.1,2.8,3.7,3.7s3.4,1.3,5.4,1.3c2.1,0,4.1-0.5,5.8-1.4V16.7z"/>
	<path class="st1" d="M113.9,32c-2.1-1.1-3.7-2.6-4.9-4.5c-1.2-1.9-1.7-4.1-1.7-6.6c0-2.5,0.6-4.6,1.7-6.6c1.2-1.9,2.8-3.4,4.9-4.5
		c2.1-1.1,4.4-1.6,7-1.6s4.9,0.5,7,1.6c2.1,1.1,3.7,2.6,4.8,4.5c1.2,1.9,1.7,4.1,1.7,6.6c0,2.5-0.6,4.6-1.7,6.6
		c-1.2,1.9-2.8,3.4-4.8,4.5s-4.4,1.6-7,1.6S116,33.1,113.9,32z M125.5,25.9c1.2-1.2,1.8-2.9,1.8-5c0-2.1-0.6-3.7-1.8-5
		c-1.2-1.2-2.7-1.9-4.5-1.9s-3.4,0.6-4.6,1.9c-1.2,1.2-1.8,2.9-1.8,5c0,2.1,0.6,3.7,1.8,5c1.2,1.2,2.7,1.9,4.6,1.9
		S124.3,27.2,125.5,25.9z"/>
</g>
</svg>
